# Blender 3.5.0
# www.blender.org
mtllib truckwheel.mtl
o Wheel
v -0.250000 -0.000000 -0.250000
v 0.250000 0.000000 -0.156838
v -0.250000 -0.176777 -0.176777
v 0.250000 -0.110901 -0.110901
v -0.250000 -0.250000 0.000000
v 0.250000 -0.156837 -0.000000
v -0.250000 -0.176777 0.176777
v 0.250000 -0.110901 0.110901
v -0.250000 -0.000000 0.250000
v 0.250000 0.000000 0.156838
v -0.250000 0.176777 0.176777
v 0.250000 0.110901 0.110901
v -0.250000 0.250000 0.000000
v 0.250000 0.156838 -0.000000
v -0.250000 0.176777 -0.176777
v 0.250000 0.110901 -0.110901
v 0.250000 -0.176777 -0.176777
v 0.250000 0.000000 -0.250000
v 0.250000 -0.250000 -0.000000
v 0.250000 -0.176777 0.176777
v 0.250000 0.000000 0.250000
v 0.250000 0.176777 0.176777
v 0.250000 0.250000 -0.000000
v 0.250000 0.176777 -0.176777
v 0.243160 -0.031028 -0.031028
v 0.243160 0.000000 -0.043881
v 0.243160 -0.043880 -0.000000
v 0.243160 -0.031028 0.031028
v 0.243160 0.000000 0.043880
v 0.243160 0.031028 0.031028
v 0.243160 0.043881 -0.000000
v 0.243160 0.031028 -0.031028
v 0.242273 -0.110901 -0.110901
v 0.242273 0.000000 -0.156838
v 0.242273 -0.156837 -0.000000
v 0.242273 -0.110901 0.110901
v 0.242273 0.000000 0.156838
v 0.242273 0.110901 0.110901
v 0.242273 0.156838 -0.000000
v 0.242273 0.110901 -0.110901
v 0.257273 -0.063811 -0.063811
v 0.257273 0.000000 -0.090243
v 0.257273 -0.090242 -0.000000
v 0.257273 -0.063811 0.063811
v 0.257273 0.000000 0.090242
v 0.257273 0.063811 0.063811
v 0.257273 0.090243 -0.000000
v 0.257273 0.063811 -0.063811
vn -0.0000 -0.3827 -0.9239
vn -0.0000 -0.9239 -0.3827
vn -0.0000 -0.9239 0.3827
vn -0.0000 -0.3827 0.9239
vn -0.0000 0.3827 0.9239
vn -0.0000 0.9239 0.3827
vn -0.0000 0.9239 -0.3827
vn -0.0000 0.3827 -0.9239
vn -1.0000 -0.0000 -0.0000
vn 1.0000 -0.0000 -0.0000
vn 0.9715 -0.0906 -0.2188
vn 0.9715 -0.2188 -0.0906
vn 0.9715 -0.2188 0.0906
vn 0.9715 -0.0906 0.2188
vn 0.9715 0.0906 0.2188
vn 0.9715 0.2188 0.0906
vn 0.9715 0.2188 -0.0906
vn 0.9715 0.0906 -0.2188
vn 0.9498 0.1198 0.2891
vn 0.9498 0.2891 0.1198
vn 0.9498 0.2891 -0.1198
vn 0.9498 0.1198 -0.2891
vn 0.9498 -0.1198 -0.2891
vn 0.9498 -0.2891 -0.1198
vn 0.9498 -0.2891 0.1198
vn 0.9498 -0.1198 0.2891
vt 1.000000 0.500000
vt 0.000000 0.500000
vt 0.750000 0.490000
vt 0.250000 0.400564
vt 0.875000 0.500000
vt 0.919706 0.419706
vt 0.356465 0.356465
vt 0.750000 0.500000
vt 0.990000 0.250000
vt 0.400564 0.250000
vt 0.625000 0.500000
vt 0.919706 0.080294
vt 0.356465 0.143535
vt 0.500000 0.500000
vt 0.750000 0.010000
vt 0.250000 0.099436
vt 0.375000 0.500000
vt 0.580294 0.080294
vt 0.143535 0.143535
vt 0.250000 0.500000
vt 0.510000 0.250000
vt 0.099436 0.250000
vt 0.125000 0.500000
vt 0.580294 0.419706
vt 0.143535 0.356465
vt 0.875000 1.000000
vt 0.419706 0.419706
vt 1.000000 1.000000
vt 0.000000 1.000000
vt 0.250000 0.490000
vt 0.750000 1.000000
vt 0.490000 0.250000
vt 0.625000 1.000000
vt 0.419706 0.080294
vt 0.500000 1.000000
vt 0.250000 0.010000
vt 0.375000 1.000000
vt 0.080294 0.080294
vt 0.250000 1.000000
vt 0.010000 0.250000
vt 0.125000 1.000000
vt 0.080294 0.419706
vt 0.279787 0.279787
vt 0.250000 0.292125
vt 0.292125 0.250000
vt 0.279787 0.220213
vt 0.250000 0.207875
vt 0.220213 0.220213
vt 0.207875 0.250000
vt 0.220213 0.279787
vt 0.356465 0.356465
vt 0.250000 0.400564
vt 0.400564 0.250000
vt 0.356465 0.143535
vt 0.250000 0.099436
vt 0.143535 0.143535
vt 0.099436 0.250000
vt 0.143535 0.356465
vt 0.311259 0.311259
vt 0.250000 0.336633
vt 0.336633 0.250000
vt 0.311259 0.188741
vt 0.250000 0.163367
vt 0.188741 0.188741
vt 0.163367 0.250000
vt 0.188741 0.311259
s 0
usemtl Tire
f 1/1/1 18/28/1 17/26/1 3/5/1
f 3/5/2 17/26/2 19/31/2 5/8/2
f 5/8/3 19/31/3 20/33/3 7/11/3
f 7/11/4 20/33/4 21/35/4 9/14/4
f 9/14/5 21/35/5 22/37/5 11/17/5
f 11/17/6 22/37/6 23/39/6 13/20/6
f 14/22/2 12/19/2 38/56/2 39/57/2
f 13/20/7 23/39/7 24/41/7 15/23/7
f 15/23/8 24/41/8 18/29/8 1/2/8
f 1/3/9 3/6/9 5/9/9 7/12/9 9/15/9 11/18/9 13/21/9 15/24/9
f 2/4/10 4/7/10 17/27/10 18/30/10
f 4/7/10 6/10/10 19/32/10 17/27/10
f 6/10/10 8/13/10 20/34/10 19/32/10
f 8/13/10 10/16/10 21/36/10 20/34/10
f 10/16/10 12/19/10 22/38/10 21/36/10
f 12/19/10 14/22/10 23/40/10 22/38/10
f 14/22/10 16/25/10 24/42/10 23/40/10
f 16/25/10 2/4/10 18/30/10 24/42/10
f 25/43/10 26/44/10 32/50/10 31/49/10 30/48/10 29/47/10 28/46/10 27/45/10
f 10/16/8 8/13/8 36/54/8 37/55/8
f 6/10/6 4/7/6 33/51/6 35/53/6
f 16/25/3 14/22/3 39/57/3 40/58/3
f 12/19/1 10/16/1 37/55/1 38/56/1
f 8/13/7 6/10/7 35/53/7 36/54/7
f 4/7/5 2/4/5 34/52/5 33/51/5
f 2/4/4 16/25/4 40/58/4 34/52/4
usemtl Disc
f 42/60/11 41/59/11 33/51/11 34/52/11
f 41/59/12 43/61/12 35/53/12 33/51/12
f 43/61/13 44/62/13 36/54/13 35/53/13
f 44/62/14 45/63/14 37/55/14 36/54/14
f 45/63/15 46/64/15 38/56/15 37/55/15
f 46/64/16 47/65/16 39/57/16 38/56/16
f 47/65/17 48/66/17 40/58/17 39/57/17
f 48/66/18 42/60/18 34/52/18 40/58/18
f 26/44/19 25/43/19 41/59/19 42/60/19
f 25/43/20 27/45/20 43/61/20 41/59/20
f 27/45/21 28/46/21 44/62/21 43/61/21
f 28/46/22 29/47/22 45/63/22 44/62/22
f 29/47/23 30/48/23 46/64/23 45/63/23
f 30/48/24 31/49/24 47/65/24 46/64/24
f 31/49/25 32/50/25 48/66/25 47/65/25
f 32/50/26 26/44/26 42/60/26 48/66/26
